<svg xmlns="http://www.w3.org/2000/svg" version="1.1" xmlns:xlink="http://www.w3.org/1999/xlink" xmlns:svgjs="http://svgjs.com/svgjs" width="1600" height="900" preserveAspectRatio="none" viewBox="0 0 1600 900"><g mask="url(&quot;#SvgjsMask1054&quot;)" fill="none"><rect width="1600" height="900" x="0" y="0" fill="rgba(255, 255, 255, 1)"></rect><path d="M245.05 996.64C387.24 980.02 471.33 664.63 710.54 663.12 949.75 661.61 943.28 775.62 1176.03 775.62 1408.78 775.62 1521.8 663.91 1641.52 663.12" stroke="rgba(51,121,194,0.58)" stroke-width="2"></path><path d="M206.89 907.68C428.13 885.83 526.28 440.6 947.13 414.89 1367.97 389.18 1486.35 106.35 1687.36 99.89" stroke="rgba(51,121,194,0.58)" stroke-width="2"></path><path d="M589.19 1024.63C724.14 968.5 613.89 590.35 930.53 550.01 1247.17 509.67 1428.07 267.82 1613.22 262.01" stroke="rgba(51,121,194,0.58)" stroke-width="2"></path><path d="M109.72 1030.94C301.43 966.26 335.6 418.36 621.72 404.19 907.84 390.02 877.73 516.69 1133.73 516.69 1389.73 516.69 1514.68 404.85 1645.73 404.19" stroke="rgba(51,121,194,0.58)" stroke-width="2"></path><path d="M963.41 1042.44C1141.73 973.08 1177.65 435.66 1422.62 430.16 1667.58 424.66 1749 690.4 1881.82 700.16" stroke="rgba(51,121,194,0.58)" stroke-width="2"></path></g><defs><mask id="SvgjsMask1054"><rect width="1600" height="900" fill="#ffffff"></rect></mask></defs></svg>