<svg xmlns="http://www.w3.org/2000/svg" version="1.1" xmlns:xlink="http://www.w3.org/1999/xlink" xmlns:svgjs="http://svgjs.com/svgjs" width="1600" height="900" preserveAspectRatio="none" viewBox="0 0 1600 900"><g mask="url(&quot;#SvgjsMask1049&quot;)" fill="none"><rect width="1600" height="900" x="0" y="0" fill="rgba(40, 41, 47, 1)"></rect><path d="M468.69 920.5C675.54 895.81 745.55 467.34 1143.88 432.15 1542.22 396.96 1627.08 74.93 1819.08 63.15" stroke="rgba(51,121,194,0.58)" stroke-width="2"></path><path d="M103.32 906.42C283.19 865.78 347.89 396.6 629.76 389.74 911.62 382.88 892.97 502.24 1156.19 502.24 1419.41 502.24 1548.05 390.37 1682.63 389.74" stroke="rgba(51,121,194,0.58)" stroke-width="2"></path><path d="M933.58 922.73C1070.3 791.9 978.73 228.49 1208.58 217.53 1438.43 206.57 1602.59 505.24 1758.58 514.53" stroke="rgba(51,121,194,0.58)" stroke-width="2"></path><path d="M186.72 921.08C395.35 917.04 547.67 656.21 973.8 643.27 1399.92 630.33 1542.8 274.9 1760.87 265.27" stroke="rgba(51,121,194,0.58)" stroke-width="2"></path><path d="M136.66 1029.28C302.56 993.62 366.24 565.57 627.12 560.09 888.01 554.61 872.35 672.59 1117.59 672.59 1362.82 672.59 1482.25 560.81 1608.05 560.09" stroke="rgba(51,121,194,0.58)" stroke-width="2"></path></g><defs><mask id="SvgjsMask1049"><rect width="1600" height="900" fill="#ffffff"></rect></mask></defs></svg>