<?xml version="1.0" encoding="utf-8"?><svg xmlns="http://www.w3.org/2000/svg" xmlns:xlink="http://www.w3.org/1999/xlink" width="1600" height="757" preserveAspectRatio="xMidYMid" viewBox="0 0 1600 757" style="z-index:1;margin-right:-2px;display:block;background-repeat-y:initial;background-repeat-x:initial;background-color:#0F172A;animation-play-state:paused" ><g transform="translate(800,378.5) scale(1,1) translate(-800,-378.5)" style="transform:matrix(1, 0, 0, 1, 0, 0);animation-play-state:paused" ><defs style="animation-play-state:paused" ><path id="path-2vwdlccu07y-1" d="M-35 -35L35 -35L35 35L-35 35Z" fill="none" stroke="inherit" stroke-width="4.333333333333334" transform="scale(0.3)" style="transform:matrix(0.3, 0, 0, 0.3, 0, 0);animation-play-state:paused" ></path>

  
<path id="path-2vwdlccu07y-2" d="M0 -37A37 37 0 0 1 0 37A37 37 0 0 1 0 -37" fill="none" stroke="inherit" stroke-width="4.333333333333334" transform="scale(0.3)" style="transform:matrix(0.3, 0, 0, 0.3, 0, 0);animation-play-state:paused" ></path>

  
<path id="path-2vwdlccu07y-3" d="M0 -34.641L40 34.641L-40 34.641Z" fill="none" stroke="inherit" stroke-width="4.333333333333334" transform="scale(0.3)" style="transform:matrix(0.3, 0, 0, 0.3, 0, 0);animation-play-state:paused" ></path></defs>
<path id="path0" d="M 71.72723325114247 40.67454113767697
c 0 29.203895348716284 -7.14563396830292 8.388352919312124 -15.533986887615043 8.388352919312124
S 40.65925947591238 69.87843648639326 40.65925947591238 40.67454113767697
s 7.14563396830292 -8.388352919312124 15.533986887615043 -8.388352919312124
S 71.72723325114247 11.470645788960685 71.72723325114247 40.67454113767697
z" fill="none" stroke="none" style="animation-play-state:paused" ></path>


<use xlink:href="#path-2vwdlccu07y-2" x="0" y="0" stroke="#0a0a0a" transform="translate(63.44978713989258 52.944759368896484)" style="animation-play-state:paused" ></use>
<path id="path1" d="M 144.10725781668842 484.6487458587548
c 0 27.799069620724552 -6.801900013581538 7.984839146378329 -14.786739159959868 7.984839146378329
S 114.53377949676869 512.4478154794793 114.53377949676869 484.6487458587548
s 6.801900013581538 -7.984839146378329 14.786739159959868 -7.984839146378329
S 144.10725781668842 456.84967623803027 144.10725781668842 484.6487458587548
z" fill="none" stroke="none" style="animation-play-state:paused" ></path>


<use xlink:href="#path-2vwdlccu07y-3" x="0" y="0" stroke="#28292f" transform="translate(133.93821716308594 494.48199462890625)" style="animation-play-state:paused" ></use>
<path id="path2" d="M 202.69288956019483 326.40504199985594
c 0 65.25888326797015 -15.967599097482054 18.74457285356589 -34.71217195104795 18.74457285356589
S 133.26854565809896 391.6639252678261 133.26854565809896 326.40504199985594
s 15.967599097482054 -18.74457285356589 34.71217195104795 -18.74457285356589
S 202.69288956019483 261.1461587318858 202.69288956019483 326.40504199985594
z" fill="none" stroke="none" style="animation-play-state:paused" ></path>


<use xlink:href="#path-2vwdlccu07y-2" x="0" y="0" stroke="#0a0a0a" transform="translate(202.60003662109375 334.4259338378906)" style="animation-play-state:paused" ></use>
<path id="path3" d="M 283.51888254155 482.6342784175558
c 0 51.067655385677234 -12.495277381601875 14.668369100141334 -27.163646481743207 14.668369100141334
S 229.19158957806357 533.701933803233 229.19158957806357 482.6342784175558
s 12.495277381601875 -14.668369100141334 27.163646481743207 -14.668369100141334
S 283.51888254155 431.5666230318785 283.51888254155 482.6342784175558
z" fill="none" stroke="none" style="animation-play-state:paused" ></path>


<use xlink:href="#path-2vwdlccu07y-1" x="0" y="0" stroke="#28292f" transform="translate(239.3928985595703 507.6959533691406)" style="animation-play-state:paused" ></use>
<path id="path4" d="M 341.23633190158415 220.7508969152833
c 0 19.887849082783084 -4.866175839404371 5.712467289735566 -10.578643129139937 5.712467289735566
S 320.07904564330426 240.63874599806638 320.07904564330426 220.7508969152833
s 4.866175839404371 -5.712467289735566 10.578643129139937 -5.712467289735566
S 341.23633190158415 200.86304783250023 341.23633190158415 220.7508969152833
z" fill="none" stroke="none" style="animation-play-state:paused" ></path>


<use xlink:href="#path-2vwdlccu07y-2" x="0" y="0" stroke="#ffffff" transform="translate(336.3757629394531 229.7800750732422)" style="animation-play-state:paused" ></use>
<path id="path5" d="M 406.0402599265858 37.614071168345916
c 0 55.24256053632533 -13.516796726973217 15.867543983838127 -29.384340710811344 15.867543983838127
S 347.27157850496314 92.85663170467124 347.27157850496314 37.614071168345916
s 13.516796726973217 -15.867543983838127 29.384340710811344 -15.867543983838127
S 406.0402599265858 -17.628489367979412 406.0402599265858 37.614071168345916
z" fill="none" stroke="none" style="animation-play-state:paused" ></path>


<use xlink:href="#path-2vwdlccu07y-3" x="0" y="0" stroke="#0a0a0a" transform="translate(382.53509521484375 55.09722900390625)" style="animation-play-state:paused" ></use>
<path id="path6" d="M 472.2341054563133 193.39694388449186
c 0 39.03050414811288 -9.550016972410598 11.210889489351574 -20.760906461762172 11.210889489351574
S 430.712292532789 232.42744803260473 430.712292532789 193.39694388449186
s 9.550016972410598 -11.210889489351574 20.760906461762172 -11.210889489351574
S 472.2341054563133 154.366439736379 472.2341054563133 193.39694388449186
z" fill="none" stroke="none" style="animation-play-state:paused" ></path>


<use xlink:href="#path-2vwdlccu07y-2" x="0" y="0" stroke="#ffffff" transform="translate(459.3059997558594 208.23187255859375)" style="animation-play-state:paused" ></use>
<path id="path7" d="M 533.4650285975836 145.79235141217868
c 0 47.92538880833218 -11.72642492118766 13.765803168350734 -25.492228089538393 13.765803168350734
S 482.48057241850677 193.71774022051085 482.48057241850677 145.79235141217868
s 11.72642492118766 -13.765803168350734 25.492228089538393 -13.765803168350734
S 533.4650285975836 97.8669626038465 533.4650285975836 145.79235141217868
z" fill="none" stroke="none" style="animation-play-state:paused" ></path>


<use xlink:href="#path-2vwdlccu07y-3" x="0" y="0" stroke="#0a0a0a" transform="translate(514.50634765625 161.78172302246094)" style="animation-play-state:paused" ></use>
<path id="path8" d="M 642.0742341179782 480.4220119297967
c 0 48.35000053252781 -11.830319279235527 13.887766110406924 -25.71808538964245 13.887766110406924
S 590.6380633386934 528.7720124623245 590.6380633386934 480.4220119297967
s 11.830319279235527 -13.887766110406924 25.71808538964245 -13.887766110406924
S 642.0742341179782 432.0720113972689 642.0742341179782 480.4220119297967
z" fill="none" stroke="none" style="animation-play-state:paused" ></path>


<use xlink:href="#path-2vwdlccu07y-2" x="0" y="0" stroke="#28292f" transform="translate(640.5911865234375 501.0467834472656)" style="animation-play-state:paused" ></use>
<path id="path9" d="M 689.7253518896963 353.33459170117715
c 0 53.48956121232363 -13.087871360462163 15.364022901412108 -28.451894261874273 15.364022901412108
S 632.8215633659478 406.82415291350077 632.8215633659478 353.33459170117715
s 13.087871360462163 -15.364022901412108 28.451894261874273 -15.364022901412108
S 689.7253518896963 299.8450304888535 689.7253518896963 353.33459170117715
z" fill="none" stroke="none" style="animation-play-state:paused" ></path>


<use xlink:href="#path-2vwdlccu07y-3" x="0" y="0" stroke="#28292f" transform="translate(682.4735717773438 381.6226501464844)" style="animation-play-state:paused" ></use>
<path id="path10" d="M 761.907453199052 665.0835386949584
c 0 29.974308973568853 -7.334139429703017 8.609641939216585 -15.943781368919602 8.609641939216585
S 730.0198904612128 695.0578476685273 730.0198904612128 665.0835386949584
s 7.334139429703017 -8.609641939216585 15.943781368919602 -8.609641939216585
S 761.907453199052 635.1092297213895 761.907453199052 665.0835386949584
z" fill="none" stroke="none" style="animation-play-state:paused" ></path>


<use xlink:href="#path-2vwdlccu07y-1" x="0" y="0" stroke="#28292f" transform="translate(761.9024658203125 666.392333984375)" style="animation-play-state:paused" ></use>
<path id="path11" d="M 843.2671750728566 327.5159646798439
c 0 30.920534595045343 -7.565662720064285 8.881430149640684 -16.447092869704967 8.881430149640684
S 810.3729893334466 358.43649927488923 810.3729893334466 327.5159646798439
s 7.565662720064285 -8.881430149640684 16.447092869704967 -8.881430149640684
S 843.2671750728566 296.5954300847985 843.2671750728566 327.5159646798439
z" fill="none" stroke="none" style="animation-play-state:paused" ></path>


<use xlink:href="#path-2vwdlccu07y-2" x="0" y="0" stroke="#ffffff" transform="translate(812.0671997070312 342.7754211425781)" style="animation-play-state:paused" ></use>
<path id="path12" d="M 884.9000758937386 501.8442396975752
c 0 34.28236936871075 -8.388239313620714 9.847063542076492 -18.235302855697206 9.847063542076492
S 848.4294701823442 536.1266090662859 848.4294701823442 501.8442396975752
s 8.388239313620714 -9.847063542076492 18.235302855697206 -9.847063542076492
S 884.9000758937386 467.5618703288644 884.9000758937386 501.8442396975752
z" fill="none" stroke="none" style="animation-play-state:paused" ></path>


<use xlink:href="#path-2vwdlccu07y-1" x="0" y="0" stroke="#28292f" transform="translate(884.7351684570312 509.1222839355469)" style="animation-play-state:paused" ></use>
<path id="path13" d="M 919.9002609757298 253.61606657535853
c 0 19.14642133632584 -4.684762667398876 5.499504000859551 -10.184266668258426 5.499504000859551
S 899.531727639213 272.7624879116844 899.531727639213 253.61606657535853
s 4.684762667398876 -5.499504000859551 10.184266668258426 -5.499504000859551
S 919.9002609757298 234.4696452390327 919.9002609757298 253.61606657535853
z" fill="none" stroke="none" style="animation-play-state:paused" ></path>


<use xlink:href="#path-2vwdlccu07y-2" x="0" y="0" stroke="#0a0a0a" transform="translate(904.9973754882812 261.627197265625)" style="animation-play-state:paused" ></use>
<path id="path14" d="M 1025.130047580945 529.2312389371986
c 0 30.17829001351249 -7.3840496841573104 8.668232237923801 -16.05228192208111 8.668232237923801
S 993.0254837367829 559.4095289507111 993.0254837367829 529.2312389371986
s 7.3840496841573104 -8.668232237923801 16.05228192208111 -8.668232237923801
S 1025.130047580945 499.0529489236861 1025.130047580945 529.2312389371986
z" fill="none" stroke="none" style="animation-play-state:paused" ></path>


<use xlink:href="#path-2vwdlccu07y-1" x="0" y="0" stroke="#28292f" transform="translate(1014.7576904296875 540.4049682617188)" style="animation-play-state:paused" ></use>
<path id="path15" d="M 1115.1795749690605 227.81762111059066
c 0 56.576736359894994 -13.843244002953028 16.250764699118776 -30.094008702071804 16.250764699118776
S 1054.991557564917 284.39435747048566 1054.991557564917 227.81762111059066
s 13.843244002953028 -16.250764699118776 30.094008702071804 -16.250764699118776
S 1115.1795749690605 171.24088475069567 1115.1795749690605 227.81762111059066
z" fill="none" stroke="none" style="animation-play-state:paused" ></path>


<use xlink:href="#path-2vwdlccu07y-3" x="0" y="0" stroke="#0a0a0a" transform="translate(1107.7545166015625 257.8160705566406)" style="animation-play-state:paused" ></use>
<path id="path16" d="M 1129.7626087403903 700.7742728055698
c 0 41.66385889502975 -10.194348453039192 11.96727861878514 -22.161627071824334 11.96727861878514
S 1085.4393545967416 742.4381317005996 1085.4393545967416 700.7742728055698
s 10.194348453039192 -11.96727861878514 22.161627071824334 -11.96727861878514
S 1129.7626087403903 659.11041391054 1129.7626087403903 700.7742728055698
z" fill="none" stroke="none" style="animation-play-state:paused" ></path>


<use xlink:href="#path-2vwdlccu07y-2" x="0" y="0" stroke="#28292f" transform="translate(1101.323486328125 715.063720703125)" style="animation-play-state:paused" ></use>
<path id="path17" d="M 1209.4227240633245 201.68619173535524
c 0 38.99726743999949 -9.541884586382853 11.201342775319004 -20.743227361701855 11.201342775319004
S 1167.9362693399207 240.68345917535473 1167.9362693399207 201.68619173535524
s 9.541884586382853 -11.201342775319004 20.743227361701855 -11.201342775319004
S 1209.4227240633245 162.68892429535575 1209.4227240633245 201.68619173535524
z" fill="none" stroke="none" style="animation-play-state:paused" ></path>


<use xlink:href="#path-2vwdlccu07y-3" x="0" y="0" stroke="#0a0a0a" transform="translate(1190.8212890625 213.20849609375)" style="animation-play-state:paused" ></use>
<path id="path18" d="M 1328.032903392679 561.7594571838202
c 0 60.974091927875186 -14.919192705756693 17.51383491545351 -32.4330276212102 17.51383491545351
S 1263.1668481502586 622.7335491116954 1263.1668481502586 561.7594571838202
s 14.919192705756693 -17.51383491545351 32.4330276212102 -17.51383491545351
S 1328.032903392679 500.78536525594507 1328.032903392679 561.7594571838202
z" fill="none" stroke="none" style="animation-play-state:paused" ></path>


<use xlink:href="#path-2vwdlccu07y-1" x="0" y="0" stroke="#ffffff" transform="translate(1303.72412109375 581.9852905273438)" style="animation-play-state:paused" ></use>
<path id="path19" d="M 1403.0372014628872 163.6844696061419
c 0 59.416469324863485 -14.53807228161553 17.066432678418234 -31.604504960033765 17.066432678418234
S 1339.8281915428195 223.10093893100537 1339.8281915428195 163.6844696061419
s 14.53807228161553 -17.066432678418234 31.604504960033765 -17.066432678418234
S 1403.0372014628872 104.26800028127842 1403.0372014628872 163.6844696061419
z" fill="none" stroke="none" style="animation-play-state:paused" ></path>


<use xlink:href="#path-2vwdlccu07y-2" x="0" y="0" stroke="#0a0a0a" transform="translate(1402.437255859375 180.8385772705078)" style="animation-play-state:paused" ></use>
<path id="path20" d="M 1418.1195265956137 343.7695425839357
c 0 22.772334327461607 -5.571954143953371 6.54098964724961 -12.112943791202982 6.54098964724961
S 1393.8936390132078 366.54187691139725 1393.8936390132078 343.7695425839357
s 5.571954143953371 -6.54098964724961 12.112943791202982 -6.54098964724961
S 1418.1195265956137 320.9972082564741 1418.1195265956137 343.7695425839357
z" fill="none" stroke="none" style="animation-play-state:paused" ></path>


<use xlink:href="#path-2vwdlccu07y-2" x="0" y="0" stroke="#28292f" transform="translate(1401.5701904296875 352.319091796875)" style="animation-play-state:paused" ></use>
<path id="path21" d="M 1541.5118933429726 243.57791634318983
c 0 62.52284768305655 -15.298143582024473 17.958690291941775 -33.256833873966244 17.958690291941775
S 1474.99822559504 306.1007640262464 1474.99822559504 243.57791634318983
s 15.298143582024473 -17.958690291941775 33.256833873966244 -17.958690291941775
S 1541.5118933429726 181.0550686601333 1541.5118933429726 243.57791634318983
z" fill="none" stroke="none" style="animation-play-state:paused" ></path>


<use xlink:href="#path-2vwdlccu07y-3" x="0" y="0" stroke="#0a0a0a" transform="translate(1530.1343994140625 275.07525634765625)" style="animation-play-state:paused" ></use>
<path id="path22" d="M 1528.1502870969175 301.1643391521358
c 0 44.56256123358625 -10.903605408217912 12.799884609647114 -23.703490017865025 12.799884609647114
S 1480.7433070611874 345.72690038572205 1480.7433070611874 301.1643391521358
s 10.903605408217912 -12.799884609647114 23.703490017865025 -12.799884609647114
S 1528.1502870969175 256.6017779185496 1528.1502870969175 301.1643391521358
z" fill="none" stroke="none" style="animation-play-state:paused" ></path>


<use xlink:href="#path-2vwdlccu07y-1" x="0" y="0" stroke="#0a0a0a" transform="translate(1513.6241455078125 318.2909240722656)" style="animation-play-state:paused" ></use></g></svg>